<?xml version="1.0" encoding="utf-8"?>
<!-- Generator: Adobe Illustrator 24.0.1, SVG Export Plug-In . SVG Version: 6.00 Build 0)  -->
<svg version="1.1" id="Layer_1" xmlns="http://www.w3.org/2000/svg" xmlns:xlink="http://www.w3.org/1999/xlink" x="0px" y="0px"
	 viewBox="0 0 1240 191" style="enable-background:new 0 0 1240 191;" xml:space="preserve">
<style type="text/css">
	.st0{fill-rule:evenodd;clip-rule:evenodd;fill:#F9F9F9;}
	.st1{fill:url(#SVGID_1_);}
	.st2{fill:#F9F9F9;}
</style>
<g id="Page-1">
	<g id="Artboard" transform="translate(0.000000, -327.000000)">
		<path id="Rectangle" class="st0" d="M0,407.5c34-12,85-18,153-18c102,0,131.16,21.53,219,28s133.25-17.32,283-20
			s215.15,30.91,294.5,32.5s92.65-23.52,144-27.5c34.23-2.65,83.07,4.68,146.5,22v73H0V407.5z"/>
	</g>
</g>
<path class="st0" d="M727.98,55.04l-49.54-3.4c-1.48-0.1-2.59-1.38-2.49-2.85l1.78-25.9c0.1-1.48,1.38-2.59,2.85-2.49l49.54,3.4
	c1.48,0.1,2.59,1.38,2.49,2.85l-1.78,25.9C730.73,54.03,729.45,55.14,727.98,55.04z"/>
<rect x="699.25" y="46.96" transform="matrix(0.9977 0.0685 -0.0685 0.9977 5.9343 -47.9311)" class="st0" width="6.21" height="31.32"/>
<g>
	<linearGradient id="SVGID_1_" gradientUnits="userSpaceOnUse" x1="690.289" y1="38.0225" x2="719.2714" y2="38.0225">
		<stop  offset="0" style="stop-color:#2047AD"/>
		<stop  offset="1" style="stop-color:#3A255F"/>
	</linearGradient>
	<path class="st1" d="M718.92,28.84c-0.04-0.14-0.15-0.24-0.3-0.27c-0.14-0.03-0.29,0.02-0.38,0.13c-0.55,0.65-1.22,0.83-2,1.03
		c-0.62,0.16-1.27,0.33-1.99,0.76c-1.02,0.6-1.54,1.5-1.4,2.41l-0.03,0.03c-0.35-0.62-0.74-1.19-1.16-1.71
		c-1.95-2.43-4.84-4.04-7.92-4.41c-0.14-0.02-0.27-0.03-0.41-0.04c-3.45-0.3-6.88,0.96-9.42,3.44c-2.53,2.47-3.84,5.86-3.62,9.3
		c0.02,0.29,0.05,0.58,0.09,0.87c0.52,3.8,2.44,6.83,5.26,8.3c0.7,0.36,1.41,0.58,2.12,0.64c1.77,0.15,3.4-0.66,4.47-2.23
		c0.41-0.6,0.69-1.23,0.84-1.88c0.09-0.38,0.08-0.77,0.08-1.15c-0.01-0.39-0.01-0.76,0.08-1.12c0.21-0.83,0.84-1.28,1.68-1.2
		c0.24,0.02,0.48,0.08,0.72,0.18c-0.33,0.5-0.64,0.99-0.91,1.43c-0.57,0.95-0.98,1.74-1.21,2.36c-0.14,0.38-0.52,1.38,0.14,1.93
		c0.21,0.17,0.49,0.25,0.78,0.22c0.27-0.03,1.08-0.11,3.59-2.51c0.67-0.64,1.4-1.39,2.17-2.23c1.82-0.44,3.33-1.81,3.84-3.48
		c0.13-0.42,0.21-0.87,0.23-1.35c0.75-0.97,1.42-1.87,2.09-2.85c0.01-0.02,0.03-0.04,0.04-0.06c0.87-0.16,1.66-0.76,2.17-1.64
		C719.37,32.44,719.47,30.7,718.92,28.84z M708.79,34.4c-0.35,0.46-0.9,0.71-1.48,0.66c-0.31-0.03-0.61-0.14-0.87-0.33
		c-0.36-0.27-0.59-0.66-0.65-1.11s0.05-0.88,0.32-1.24c0.35-0.46,0.9-0.71,1.48-0.66c0.31,0.03,0.61,0.14,0.87,0.33
		c0.36,0.27,0.59,0.66,0.65,1.11C709.17,33.6,709.06,34.04,708.79,34.4z M710.69,37.61c0.95-1.17,1.95-2.33,2.89-3.35
		c0.13,0.14,0.27,0.27,0.43,0.4c0.26,0.22,0.53,0.39,0.82,0.52c-0.82,1.16-1.7,2.31-2.75,3.6c-1.73,2.12-3.5,4.08-4.99,5.51
		c-0.83,0.8-1.56,1.41-2.1,1.78c0.25-0.61,0.71-1.45,1.32-2.43C707.41,41.87,708.96,39.73,710.69,37.61z M695.88,36.32
		c-0.31-0.03-0.61-0.14-0.87-0.33c-0.36-0.27-0.59-0.66-0.65-1.11c-0.06-0.44,0.05-0.88,0.32-1.24c0.35-0.46,0.9-0.71,1.48-0.66
		c0.31,0.03,0.61,0.14,0.87,0.33c0.74,0.56,0.88,1.61,0.32,2.35C697.01,36.12,696.46,36.37,695.88,36.32z M693.81,39.84
		c0.35-0.46,0.9-0.71,1.48-0.66c0.31,0.03,0.61,0.14,0.87,0.33c0.36,0.27,0.59,0.66,0.65,1.11c0.06,0.44-0.05,0.88-0.32,1.24
		c-0.35,0.46-0.9,0.71-1.48,0.66c-0.31-0.03-0.61-0.14-0.87-0.33c-0.36-0.27-0.59-0.66-0.65-1.11
		C693.42,40.64,693.54,40.2,693.81,39.84z M700.01,30.39c0.35-0.46,0.9-0.71,1.48-0.66c0.31,0.03,0.61,0.14,0.87,0.33
		c0.74,0.56,0.88,1.61,0.32,2.35c-0.35,0.46-0.9,0.71-1.48,0.66c-0.31-0.03-0.61-0.14-0.87-0.33c-0.36-0.27-0.59-0.66-0.65-1.11
		C699.63,31.19,699.74,30.75,700.01,30.39z"/>
</g>
<circle class="st2" cx="453" cy="46.5" r="3"/>
<circle class="st2" cx="100" cy="14.5" r="3"/>
<circle class="st2" cx="392.5" cy="33" r="1.5"/>
<circle class="st2" cx="196.5" cy="55" r="1.5"/>
<circle class="st2" cx="939" cy="4.5" r="3"/>
<circle class="st2" cx="572.5" cy="15" r="1.5"/>
<circle class="st2" cx="905.5" cy="63" r="1.5"/>
<circle class="st2" cx="1160.5" cy="31" r="1.5"/>
</svg>
